<svg width="1600" height="900" viewBox="0 0 1600 900" fill="none" xmlns="http://www.w3.org/2000/svg">
  <defs>
    <linearGradient id="bg" x1="160" y1="48" x2="1418" y2="888" gradientUnits="userSpaceOnUse">
      <stop stop-color="#0F172A"/>
      <stop offset="0.5" stop-color="#111827"/>
      <stop offset="1" stop-color="#0B1120"/>
    </linearGradient>
    <radialGradient id="glow1" cx="0" cy="0" r="1" gradientUnits="userSpaceOnUse" gradientTransform="translate(816 172) rotate(90) scale(220 620)">
      <stop stop-color="#34D399" stop-opacity="0.44"/>
      <stop offset="1" stop-color="#34D399" stop-opacity="0"/>
    </radialGradient>
    <radialGradient id="glow2" cx="0" cy="0" r="1" gradientUnits="userSpaceOnUse" gradientTransform="translate(1174 708) rotate(180) scale(422 240)">
      <stop stop-color="#22D3EE" stop-opacity="0.28"/>
      <stop offset="1" stop-color="#22D3EE" stop-opacity="0"/>
    </radialGradient>
    <linearGradient id="glass" x1="412" y1="178" x2="1182" y2="746" gradientUnits="userSpaceOnUse">
      <stop stop-color="white" stop-opacity="0.26"/>
      <stop offset="1" stop-color="white" stop-opacity="0.08"/>
    </linearGradient>
  </defs>

  <rect width="1600" height="900" fill="url(#bg)"/>
  <rect width="1600" height="900" fill="url(#glow1)"/>
  <rect width="1600" height="900" fill="url(#glow2)"/>
  <rect x="190" y="98" width="1220" height="704" rx="34" fill="url(#glass)" stroke="#FFFFFF" stroke-opacity="0.22" stroke-width="2"/>
  <rect x="190" y="98" width="1220" height="72" rx="34" fill="#F8FAFC" fill-opacity="0.92"/>
  <circle cx="246" cy="134" r="10" fill="#FB7185"/>
  <circle cx="278" cy="134" r="10" fill="#FBBF24"/>
  <circle cx="310" cy="134" r="10" fill="#34D399"/>
  <rect x="605" y="116" width="392" height="34" rx="17" fill="white" fill-opacity="0.9"/>
  <text x="801" y="138" fill="#64748B" font-family="Arial, sans-serif" font-size="13" font-weight="700" letter-spacing="3.2" text-anchor="middle">EARLYMARK.AI/DASHBOARD</text>

  <rect x="268" y="208" width="1064" height="72" rx="24" fill="#F8FAFC" fill-opacity="0.1" stroke="#FFFFFF" stroke-opacity="0.08"/>
  <text x="314" y="251" fill="#A7F3D0" font-family="Arial, sans-serif" font-size="18" font-weight="700">CHAT</text>
  <text x="472" y="251" fill="#E2E8F0" font-family="Arial, sans-serif" font-size="18" font-weight="700">DASHBOARD</text>
  <text x="706" y="251" fill="#E2E8F0" font-family="Arial, sans-serif" font-size="18" font-weight="700">INBOX</text>
  <text x="868" y="251" fill="#E2E8F0" font-family="Arial, sans-serif" font-size="18" font-weight="700">MAP</text>
  <text x="1006" y="251" fill="#E2E8F0" font-family="Arial, sans-serif" font-size="18" font-weight="700">CALENDAR</text>

  <rect x="272" y="316" width="500" height="390" rx="28" fill="white" fill-opacity="0.08" stroke="#FFFFFF" stroke-opacity="0.08"/>
  <text x="314" y="360" fill="white" font-family="Arial, sans-serif" font-size="34" font-weight="700">Tracey Chat</text>
  <rect x="314" y="394" width="290" height="56" rx="22" fill="#10B981"/>
  <text x="459" y="429" fill="white" font-family="Arial, sans-serif" font-size="20" font-weight="700" text-anchor="middle">Move the Henderson job to complete</text>
  <rect x="314" y="476" width="374" height="94" rx="24" fill="white" fill-opacity="0.12"/>
  <text x="340" y="515" fill="#DCFCE7" font-family="Arial, sans-serif" font-size="19" font-weight="700">Done. Henderson Plumbing is now Completed.</text>
  <text x="340" y="547" fill="#BFDBFE" font-family="Arial, sans-serif" font-size="17">Next up: invoice sent, follow-up booked, calendar updated.</text>
  <rect x="314" y="598" width="420" height="64" rx="22" fill="white" fill-opacity="0.06"/>
  <text x="340" y="638" fill="#CBD5E1" font-family="Arial, sans-serif" font-size="18">Then opening dashboard, inbox, map, and calendar…</text>

  <rect x="806" y="316" width="484" height="176" rx="28" fill="white" fill-opacity="0.08" stroke="#FFFFFF" stroke-opacity="0.08"/>
  <text x="846" y="358" fill="white" font-family="Arial, sans-serif" font-size="28" font-weight="700">Operational snapshot</text>
  <rect x="846" y="382" width="118" height="78" rx="20" fill="#0F172A"/>
  <rect x="980" y="382" width="118" height="78" rx="20" fill="#0F172A"/>
  <rect x="1114" y="382" width="118" height="78" rx="20" fill="#0F172A"/>
  <text x="905" y="420" fill="#86EFAC" font-family="Arial, sans-serif" font-size="15" font-weight="700" text-anchor="middle">OPEN JOBS</text>
  <text x="905" y="446" fill="white" font-family="Arial, sans-serif" font-size="28" font-weight="700" text-anchor="middle">18</text>
  <text x="1039" y="420" fill="#7DD3FC" font-family="Arial, sans-serif" font-size="15" font-weight="700" text-anchor="middle">INBOX</text>
  <text x="1039" y="446" fill="white" font-family="Arial, sans-serif" font-size="28" font-weight="700" text-anchor="middle">42</text>
  <text x="1173" y="420" fill="#FDE68A" font-family="Arial, sans-serif" font-size="15" font-weight="700" text-anchor="middle">TODAY</text>
  <text x="1173" y="446" fill="white" font-family="Arial, sans-serif" font-size="28" font-weight="700" text-anchor="middle">9 jobs</text>

  <rect x="806" y="516" width="228" height="190" rx="28" fill="white" fill-opacity="0.08" stroke="#FFFFFF" stroke-opacity="0.08"/>
  <text x="842" y="556" fill="white" font-family="Arial, sans-serif" font-size="24" font-weight="700">Inbox</text>
  <rect x="842" y="580" width="156" height="32" rx="16" fill="#1E293B"/>
  <rect x="842" y="626" width="168" height="24" rx="12" fill="#334155"/>
  <rect x="842" y="664" width="140" height="24" rx="12" fill="#334155"/>

  <rect x="1062" y="516" width="228" height="190" rx="28" fill="white" fill-opacity="0.08" stroke="#FFFFFF" stroke-opacity="0.08"/>
  <text x="1098" y="556" fill="white" font-family="Arial, sans-serif" font-size="24" font-weight="700">Map + Calendar</text>
  <circle cx="1136" cy="612" r="10" fill="#10B981"/>
  <circle cx="1194" cy="646" r="10" fill="#38BDF8"/>
  <circle cx="1242" cy="596" r="10" fill="#F59E0B"/>
  <rect x="1096" y="664" width="160" height="26" rx="13" fill="#334155"/>

  <text x="800" y="778" fill="#E2E8F0" font-family="Arial, sans-serif" font-size="18" font-weight="700" text-anchor="middle">Drop hero reel video assets into /public to activate autoplay on the homepage.</text>
</svg>
